<svg xmlns="http://www.w3.org/2000/svg" xmlns:svg="http://www.w3.org/2000/svg" xmlns:xlink="http://www.w3.org/1999/xlink" id="svg3941" width="744.094" height="1052.362"><metadata id="metadata3946"/><g id="layer1"><g id="g4143" transform="matrix(-0.4616089,0,0,-0.4616089,488.13593,1357.6243)" style="fill:#fff;stroke-width:2.16633605;stroke-miterlimit:4;stroke-dasharray:none"><path id="path4145" d="M 307.43256,963.99526 C 310.53249,963.67242 312.13534,962.49315 313.77105,961.33372 L 349.18245,928.27644 C 350.81625,926.71744 352.97265,925.69315 352.79512,921.18311 C 352.60493,916.35137 350.1964,915.7693 348.49431,914.43166 L 312.90633,887.14206 C 312.09198,886.52352 311.00858,885.43874 307.43256,885.33886 C 297.9348,885.33886 290.22647,902.95789 290.22647,924.66706 C 290.22647,946.37623 297.9348,963.99526 307.43256,963.99526 z" style="fill:#fff;fill-opacity:1;fill-rule:nonzero;stroke:#000;stroke-width:2.16633605;stroke-linecap:round;stroke-linejoin:round;stroke-miterlimit:4;stroke-dasharray:none;stroke-opacity:1"/></g><path style="fill:none;fill-rule:evenodd;stroke:#000;stroke-width:1;stroke-linecap:butt;stroke-linejoin:miter;stroke-opacity:1;stroke-miterlimit:4;stroke-dasharray:none" id="path4061" d="M 302.34702,912.10908 L 263.01665,903.9065"/><path style="fill:none;fill-rule:evenodd;stroke:#000;stroke-width:1;stroke-linecap:butt;stroke-linejoin:miter;stroke-opacity:1;stroke-miterlimit:4;stroke-dasharray:none" id="path4091" d="M 302.23533,912.18348 L 273.39113,884.59034"/><use id="use4093" width="744.094" height="1052.362" x="0" y="0" transform="matrix(0.9671163,0.2543346,-0.2543346,0.9671163,228.78498,-36.989217)" xlink:href="#path4069" style="stroke-width:.99999999;stroke-miterlimit:4;stroke-dasharray:none"/><g id="g4119" transform="matrix(0.4616089,0,0,0.4616089,125.14536,503.16324)" style="stroke-width:2.16633605;stroke-miterlimit:4;stroke-dasharray:none"><path id="path7906" d="M 307.43256,963.99526 C 316.93032,963.99526 434.10793,963.99526 443.6057,963.99526 C 453.10346,963.99526 460.81179,946.37623 460.81179,924.66706 C 460.81179,902.95789 453.10346,885.33886 443.6057,885.33886 C 434.10793,885.33886 316.93032,885.33886 307.43256,885.33886 C 297.9348,885.33886 290.22647,902.95789 290.22647,924.66706 C 290.22647,946.37623 297.9348,963.99526 307.43256,963.99526 z" style="fill:#ececec;fill-opacity:1;fill-rule:nonzero;stroke:#000;stroke-width:2.16633605;stroke-linecap:round;stroke-linejoin:round;stroke-miterlimit:4;stroke-dasharray:none;stroke-opacity:1"/><path id="path7387" d="M 307.43256,885.33886 C 316.93032,885.33886 324.63865,902.95789 324.63865,924.66706 C 324.63865,946.37623 316.93032,963.99526 307.43256,963.99526" style="fill:#ececec;fill-opacity:1;fill-rule:nonzero;stroke:#000;stroke-width:2.16633605;stroke-linecap:round;stroke-linejoin:round;stroke-miterlimit:4;stroke-dasharray:none;stroke-opacity:1"/><path id="path8713" d="M 307.33507,903.45808 C 312.45704,903.45808 316.614,912.95971 316.614,924.66706 C 316.614,936.37441 312.45704,945.87604 307.33507,945.87604" style="fill:#ececec;fill-opacity:1;fill-rule:nonzero;stroke:#000;stroke-width:2.16633605;stroke-linecap:round;stroke-linejoin:round;stroke-miterlimit:4;stroke-dasharray:none;stroke-opacity:1"/><path id="path8715" d="M 309.46309,940.05636 L 307.32569,945.82735 L 310.74553,949.46093" style="fill:none;fill-rule:evenodd;stroke:#000;stroke-width:2.16633605;stroke-linecap:butt;stroke-linejoin:miter;stroke-miterlimit:4;stroke-dasharray:none;stroke-opacity:1"/></g><path style="fill:none;fill-rule:evenodd;stroke:#000;stroke-width:1;stroke-linecap:butt;stroke-linejoin:miter;stroke-opacity:1;stroke-miterlimit:4;stroke-dasharray:none" id="path4055" d="M 300.24379,911.68844 L 265.3302,892.33874"/><path style="fill:none;fill-rule:evenodd;stroke:#000;stroke-width:1;stroke-linecap:butt;stroke-linejoin:miter;stroke-opacity:1;stroke-miterlimit:4;stroke-dasharray:none" id="path4065" d="M 302.14346,911.27456 L 275.62927,879.92294"/><path style="opacity:1;fill:none;fill-opacity:1;stroke:#000;stroke-width:1.69806992;stroke-linecap:round;stroke-linejoin:round;stroke-miterlimit:4;stroke-dasharray:none;stroke-dashoffset:0;stroke-opacity:1" id="path4069" d="M 301.42857,828.61218 A 2.6785715,2.3214285 0 1 1 296.07143,828.61218 A 2.6785715,2.3214285 0 1 1 301.42857,828.61218 z" transform="matrix(0.5889039,0,0,0.5889039,98.5442,390.169)"/><use id="use4071" width="744.094" height="1052.362" x="0" y="0" transform="translate(-12.198724,12.409047)" xlink:href="#path4069" style="stroke-width:1;stroke-miterlimit:4;stroke-dasharray:none"/><use id="use4081" width="744.094" height="1052.362" x="0" y="0" transform="translate(-13.986468,25.3439)" xlink:href="#path4069" style="stroke-width:1;stroke-miterlimit:4;stroke-dasharray:none"/><g id="g4083" transform="matrix(0.5889039,0,0,0.5889039,98.5442,390.169)" style="stroke-width:1.69806992;stroke-miterlimit:4;stroke-dasharray:none"><path id="path4039" d="M 341.30616,741.188 C 358.66723,741.188 364.47562,741.188 381.8367,741.188 C 399.19777,741.188 413.28791,773.39403 413.28791,813.07647 C 413.28791,852.75891 399.19777,884.96494 381.8367,884.96494 C 364.47562,884.96494 358.66723,884.96494 341.30616,884.96494 C 323.94509,884.96494 309.85495,852.75891 309.85495,813.07647 C 309.85495,773.39403 323.94509,741.188 341.30616,741.188 z" style="fill:#fff;fill-opacity:1;fill-rule:nonzero;stroke:#000;stroke-width:1.69806992;stroke-linecap:round;stroke-linejoin:round;stroke-miterlimit:4;stroke-dasharray:none;stroke-opacity:1"/><path id="path4041" d="M 341.30616,741.188 C 358.66723,741.188 372.75737,773.39403 372.75737,813.07647 C 372.75737,852.75891 358.66723,884.96494 341.30616,884.96494" style="fill:#fff;fill-opacity:1;fill-rule:nonzero;stroke:#000;stroke-width:1.69806992;stroke-linecap:round;stroke-linejoin:round;stroke-miterlimit:4;stroke-dasharray:none;stroke-opacity:1"/><path id="path4043" d="M 341.12796,774.30833 C 350.49047,774.30833 358.08902,791.67647 358.08902,813.07647 C 358.08902,834.47647 350.49047,851.84461 341.12796,851.84461" style="fill:#fff;fill-opacity:1;fill-rule:nonzero;stroke:#000;stroke-width:1.69806992;stroke-linecap:round;stroke-linejoin:round;stroke-miterlimit:4;stroke-dasharray:none;stroke-opacity:1"/><path id="path4045" d="M 345.01779,841.20675 L 341.11081,851.75561 L 347.36198,858.39747" style="fill:none;fill-rule:evenodd;stroke:#000;stroke-width:1.69806992;stroke-linecap:butt;stroke-linejoin:miter;stroke-miterlimit:4;stroke-dasharray:none;stroke-opacity:1"/></g><g id="g4125" transform="matrix(0.5889039,0,0,0.5889039,105.61105,390.169)" style="stroke-width:1.69806992;stroke-miterlimit:4;stroke-dasharray:none"><path id="path4115" d="M 266.76534,794.71746 L 289.74962,794.69734" style="fill:none;fill-rule:evenodd;stroke:#000;stroke-width:1.69806992;stroke-linecap:butt;stroke-linejoin:miter;stroke-opacity:1;stroke-miterlimit:4;stroke-dasharray:none"/><path id="path4117" d="M 273.91778,787.49277 L 266.69309,794.86195 L 273.84553,802.01438" style="fill:none;fill-rule:evenodd;stroke:#000;stroke-width:1.69806992;stroke-linecap:butt;stroke-linejoin:miter;stroke-opacity:1;stroke-miterlimit:4;stroke-dasharray:none"/></g><g id="g4133" transform="matrix(0.4616089,0,0,0.4616089,105.89011,503.44065)" style="fill:#fff;stroke-width:2.16633605;stroke-miterlimit:4;stroke-dasharray:none"><path id="path4135" d="M 307.43256,963.99526 L 313.77105,961.33372 L 349.18245,928.27644 C 350.81625,926.71744 352.97265,925.69315 352.79512,921.18311 C 352.60493,916.35137 350.1964,915.7693 348.49431,914.43166 L 312.90633,887.14206 L 307.43256,885.33886 C 297.9348,885.33886 290.22647,902.95789 290.22647,924.66706 C 290.22647,946.37623 297.9348,963.99526 307.43256,963.99526 z" style="fill:#fff;fill-opacity:1;fill-rule:nonzero;stroke:#000;stroke-width:2.16633605;stroke-linecap:round;stroke-linejoin:round;stroke-miterlimit:4;stroke-dasharray:none;stroke-opacity:1"/><path id="path4137" d="M 307.43256,885.33886 C 316.93032,885.33886 324.63865,902.95789 324.63865,924.66706 C 324.63865,946.37623 316.93032,963.99526 307.43256,963.99526" style="fill:#fff;fill-opacity:1;fill-rule:nonzero;stroke:#000;stroke-width:2.16633605;stroke-linecap:round;stroke-linejoin:round;stroke-miterlimit:4;stroke-dasharray:none;stroke-opacity:1"/><path id="path4139" d="M 307.33507,903.45808 C 312.45704,903.45808 316.614,912.95971 316.614,924.66706 C 316.614,936.37441 312.45704,945.87604 307.33507,945.87604" style="fill:#fff;fill-opacity:1;fill-rule:nonzero;stroke:#000;stroke-width:2.16633605;stroke-linecap:round;stroke-linejoin:round;stroke-miterlimit:4;stroke-dasharray:none;stroke-opacity:1"/><path id="path4141" d="M 309.46309,940.05636 L 307.32569,945.82735 L 310.74553,949.46093" style="fill:none;fill-rule:evenodd;stroke:#000;stroke-width:2.16633605;stroke-linecap:butt;stroke-linejoin:miter;stroke-miterlimit:4;stroke-dasharray:none;stroke-opacity:1"/></g></g></svg>