<svg xmlns="http://www.w3.org/2000/svg" xmlns:svg="http://www.w3.org/2000/svg" xmlns:xlink="http://www.w3.org/1999/xlink" id="svg8769" width="744.094" height="1052.362"><defs id="defs8771"><linearGradient id="linearGradient9462"><stop style="stop-color:#ff0;stop-opacity:1" id="stop9464" offset="0"/><stop id="stop9470" offset=".714" style="stop-color:#ff9f00;stop-opacity:1"/><stop style="stop-color:#fff;stop-opacity:0" id="stop9466" offset="1"/></linearGradient><linearGradient id="linearGradient4938"><stop style="stop-color:#007;stop-opacity:.58518517" id="stop4940" offset="0"/><stop id="stop9448" offset=".21" style="stop-color:#00b0d8;stop-opacity:1"/><stop style="stop-color:#76bce3;stop-opacity:.32592592" id="stop9458" offset=".604"/><stop id="stop9456" offset=".753" style="stop-color:#ecc909;stop-opacity:1"/><stop style="stop-color:#ffee24;stop-opacity:0" id="stop4942" offset="1"/></linearGradient><radialGradient id="radialGradient9446" cx="367.063" cy="861.142" r="13.972" fx="367.063" fy="861.142" gradientTransform="matrix(0.788708,-9.0283715e-3,2.6936096e-2,7.1343338,55.065071,-5263.1103)" gradientUnits="userSpaceOnUse" xlink:href="#linearGradient4938"/><radialGradient id="radialGradient9468" cx="359.107" cy="917.898" r="6.786" fx="359.107" fy="917.898" gradientTransform="matrix(1,0,0,1.3421052,0,-314.01767)" gradientUnits="userSpaceOnUse" xlink:href="#linearGradient9462"/></defs><metadata id="metadata8774"/><g id="layer1"><path style="opacity:1;fill:url(#radialGradient9446);fill-opacity:1;fill-rule:evenodd;stroke:none;stroke-width:1.03799999000000009;stroke-linecap:butt;stroke-linejoin:miter;stroke-miterlimit:4;stroke-dasharray:none;stroke-opacity:1" id="path4936" d="M 382.29065,938.34943 L 368.68965,831.07871 L 365.98228,832.04549 L 355.38504,937.14097" clip-path="none"/><path style="fill:#f9f9f9;fill-rule:evenodd;stroke:#000;stroke-width:1;stroke-linecap:butt;stroke-linejoin:miter;stroke-miterlimit:4;stroke-dasharray:none;stroke-opacity:1" id="path2383" d="M 441.97305,792.33776 C 441.97305,792.33776 441.97305,792.33776 441.97305,792.33776 z M 442.38481,821.18029 C 442.24132,818.51176 443.55103,814.61138 442.82597,813.88633 C 441.15035,812.21071 440.92505,807.22762 441.87501,805.32768 C 443.62428,801.82916 440.59773,800.94681 441.56129,797.09256 C 442.08512,794.99726 442.27919,794.11548 441.97305,792.33776 L 416.83632,792.33776 C 416.84525,797.32028 413.77838,801.95244 407.96396,801.84736 L 379.07241,801.84736 C 378.48106,799.5187 376.38433,797.79843 373.86663,797.79843 L 360.19045,797.79843 C 357.21102,797.79843 354.81801,800.20124 354.81801,803.18067 L 355.26898,814.602 C 355.26899,814.84707 355.29636,815.09127 355.32781,815.32747 C 355.2899,816.12123 355.26898,816.92527 355.26898,817.73919 C 355.26899,826.66164 358.93807,833.92955 362.4257,838.25837 C 363.13893,839.14362 362.55701,840.44071 363.35705,841.01321 C 364.61074,841.91033 365.96311,842.39553 367.36677,842.39553 C 368.7982,842.39554 370.17045,841.89553 371.44512,840.96419 C 372.2915,840.34577 371.52138,839.42216 372.26863,838.45444 C 375.64738,834.07886 379.46455,826.49361 379.46456,817.73919 C 379.46456,817.23425 379.45967,816.73666 379.44495,816.23922 C 379.60761,815.72474 379.69004,815.17164 379.69004,814.602 L 379.23907,810.40601 L 407.65024,810.40601 C 415.03745,810.28291 416.27971,819.37618 416.13045,821.18029 L 442.38481,821.18029 z"/><path style="opacity:1;fill:#ececec;fill-opacity:1;fill-rule:evenodd;stroke:#000;stroke-width:1;stroke-linecap:round;stroke-linejoin:round;stroke-miterlimit:4;stroke-dasharray:none;stroke-opacity:1" id="path6866" d="M 375.81757,868.29662 L 376.42858,922.30529 L 442.38481,922.30529 L 442.38481,868.29662 L 375.81757,868.29662 z M 359.64286,922.48386 L 360.12182,868.29662 L 329.7205,868.29662 L 329.7205,922.30529 L 359.64286,922.48386 z"/><path style="opacity:1;fill:url(#radialGradient9468);fill-opacity:1;fill-rule:nonzero;stroke:none;stroke-width:1.03799999;stroke-linecap:round;stroke-linejoin:round;stroke-miterlimit:4;stroke-dasharray:none;stroke-opacity:1" id="path9460" d="M 365.89286,917.89789 A 6.7857141,9.1071424 0 1 1 352.32143,917.89789 A 6.7857141,9.1071424 0 1 1 365.89286,917.89789 z" transform="matrix(0.2894737,0,0,0.2647058,254.61937,682.51424)"/><use id="use9474" width="744.094" height="1052.362" x="0" y="0" transform="translate(-0.3571428,6.0714285)" xlink:href="#path9460"/><use id="use9476" width="744.094" height="1052.362" x="0" y="0" transform="translate(28.392857,3.5714286)" xlink:href="#path9460"/><use id="use9478" width="744.094" height="1052.362" x="0" y="0" transform="translate(21.96427,3.8393333)" xlink:href="#path9460"/><use id="use9480" width="744.094" height="1052.362" x="0" y="0" transform="translate(-4.2857296,4.1964761)" xlink:href="#path9460"/><use id="use9482" width="744.094" height="1052.362" x="0" y="0" transform="translate(-8.5714435,9.0179048)" xlink:href="#path9460"/><use id="use9484" width="744.094" height="1052.362" x="0" y="0" transform="translate(0.8928419,10.803619)" xlink:href="#path9460"/><use id="use9486" width="744.094" height="1052.362" x="0" y="0" transform="translate(19.285699,8.8393333)" xlink:href="#path9460"/><use id="use9488" width="744.094" height="1052.362" x="0" y="0" transform="translate(26.249985,10.267905)" xlink:href="#path9460"/><use id="use9490" width="744.094" height="1052.362" x="0" y="0" transform="translate(18.749985,-0.6249524)" xlink:href="#path9460"/><use id="use9492" width="744.094" height="1052.362" x="0" y="0" transform="translate(-2.6785867,7.2321904)" xlink:href="#path9460"/><use id="use9494" width="744.094" height="1052.362" x="0" y="0" transform="translate(19.46427,2.7679047)" xlink:href="#path9460"/></g></svg>