<svg xmlns="http://www.w3.org/2000/svg" xmlns:svg="http://www.w3.org/2000/svg" xmlns:xlink="http://www.w3.org/1999/xlink" id="svg9516" width="744.094" height="1052.362"><defs id="defs9518"><linearGradient id="linearGradient9462"><stop style="stop-color:#ff0;stop-opacity:1" id="stop9464" offset="0"/><stop id="stop9470" offset=".357" style="stop-color:#ffbf00;stop-opacity:1"/><stop style="stop-color:#ffe870;stop-opacity:0" id="stop9466" offset="1"/></linearGradient><linearGradient id="linearGradient10071"><stop style="stop-color:#ffbb29;stop-opacity:.54411763" id="stop10073" offset="0"/><stop id="stop10079" offset=".589" style="stop-color:red;stop-opacity:.26666668"/><stop style="stop-color:red;stop-opacity:.28148147" id="stop10075" offset="1"/></linearGradient><radialGradient id="radialGradient10077" cx="314.497" cy="848.063" r="54.378" fx="314.497" fy="848.063" gradientTransform="matrix(0.251255,-4.0357511e-3,2.2023893e-2,1.3711482,165.02513,-256.36249)" gradientUnits="userSpaceOnUse" xlink:href="#linearGradient10071"/><radialGradient id="radialGradient10225" cx="359.107" cy="917.898" r="6.786" fx="359.107" fy="917.898" gradientTransform="matrix(1,0,0,1.3421052,0,-314.01767)" gradientUnits="userSpaceOnUse" xlink:href="#linearGradient9462"/><radialGradient id="radialGradient10251" cx="359.107" cy="917.898" r="6.786" fx="359.107" fy="917.898" gradientTransform="matrix(1,0,0,1.3421052,0,-314.01767)" gradientUnits="userSpaceOnUse" xlink:href="#linearGradient9462"/></defs><metadata id="metadata9521"/><g id="layer1"><path id="use10221" d="M 365.89286,917.89789 A 6.7857141,9.1071424 0 1 1 352.32143,917.89789 A 6.7857141,9.1071424 0 1 1 365.89286,917.89789 z" transform="matrix(1.4813669,0,0,2.8207584,-269.26239,-1683.6426)" style="fill:url(#radialGradient10225);fill-opacity:1;fill-rule:nonzero;stroke:none;stroke-width:.4891992;stroke-linecap:round;stroke-linejoin:round;stroke-miterlimit:4;stroke-dasharray:none;stroke-opacity:1"/><path id="path10040" d="M 246.09809,941.26571 L 292.03075,842.15474 L 295.79871,822.15636 L 295.81899,822.1412 L 295.82803,792.74142 L 229.65713,792.82884 L 229.64456,822.50309 L 229.6154,822.66069 L 233.15182,841.70252 L 279.17627,941.02036" style="fill:url(#radialGradient10077);fill-opacity:1;fill-rule:evenodd;stroke:#000;stroke-width:1;stroke-linecap:butt;stroke-linejoin:miter;stroke-opacity:1;stroke-miterlimit:4;stroke-dasharray:none"/><path style="opacity:1;fill:url(#radialGradient10251);fill-opacity:1;fill-rule:nonzero;stroke:none;stroke-width:5.87910327;stroke-linecap:round;stroke-linejoin:round;stroke-miterlimit:4;stroke-dasharray:none;stroke-opacity:1" id="path9460" d="M 365.89286,917.89789 A 6.7857141,9.1071424 0 1 1 352.32143,917.89789 A 6.7857141,9.1071424 0 1 1 365.89286,917.89789 z" transform="matrix(0.1778737,0,0,0.1626545,199.10291,759.79452)"/><use id="use10167" width="744.094" height="1052.362" x="0" y="0" transform="translate(-0.6207099,4.7329189)" xlink:href="#path9460" style="stroke-width:1;stroke-miterlimit:4;stroke-dasharray:none"/><use id="use10169" width="744.094" height="1052.362" x="0" y="0" transform="translate(-3.4914986,7.914063)" xlink:href="#path9460" style="stroke-width:1;stroke-miterlimit:4;stroke-dasharray:none"/><use id="use10171" width="744.094" height="1052.362" x="0" y="0" transform="translate(2.6380232,8.6123632)" xlink:href="#path9460" style="stroke-width:1;stroke-miterlimit:4;stroke-dasharray:none"/><use id="use10173" width="744.094" height="1052.362" x="0" y="0" transform="translate(-9.3882534,11.63833)" xlink:href="#path9460" style="stroke-width:1;stroke-miterlimit:4;stroke-dasharray:none"/><use id="use10175" width="744.094" height="1052.362" x="0" y="0" transform="translate(8.1468344,11.250385)" xlink:href="#path9460" style="stroke-width:1;stroke-miterlimit:4;stroke-dasharray:none"/><use id="use10177" width="744.094" height="1052.362" x="0" y="0" transform="translate(10.784856,17.14714)" xlink:href="#path9460" style="stroke-width:1;stroke-miterlimit:4;stroke-dasharray:none"/><use id="use10179" width="744.094" height="1052.362" x="0" y="0" transform="translate(16.7592,14.741885)" xlink:href="#path9460" style="stroke-width:1;stroke-miterlimit:4;stroke-dasharray:none"/><use id="use10185" width="744.094" height="1052.362" x="0" y="0" transform="translate(-11.71592,12.181452)" xlink:href="#path9460" style="stroke-width:1;stroke-miterlimit:4;stroke-dasharray:none"/><use id="use10187" width="744.094" height="1052.362" x="0" y="0" transform="translate(-16.060897,17.224729)" xlink:href="#path9460" style="stroke-width:1;stroke-miterlimit:4;stroke-dasharray:none"/><use id="use10191" width="744.094" height="1052.362" x="0" y="0" transform="translate(-2.7156097,-2.2500806)" xlink:href="#path9460" style="stroke-width:1;stroke-miterlimit:4;stroke-dasharray:none"/><use id="use10193" width="744.094" height="1052.362" x="0" y="0" transform="translate(-3.4914986,-6.9830024)" xlink:href="#path9460" style="stroke-width:1;stroke-miterlimit:4;stroke-dasharray:none"/><use id="use10197" width="744.094" height="1052.362" x="0" y="0" transform="translate(2.8707899,-6.2847022)" xlink:href="#path9460" style="stroke-width:1;stroke-miterlimit:4;stroke-dasharray:none"/><use id="use10199" width="744.094" height="1052.362" x="0" y="0" transform="translate(2.4052565,-4.5777471)" xlink:href="#path9460" style="stroke-width:1;stroke-miterlimit:4;stroke-dasharray:none"/><use id="use10201" width="744.094" height="1052.362" x="0" y="0" transform="translate(2.7156121,-1.5517806)" xlink:href="#path9460" style="stroke-width:1;stroke-miterlimit:4;stroke-dasharray:none"/><use id="use10203" width="744.094" height="1052.362" x="0" y="0" transform="translate(-2.7931986,-3.7242693)" xlink:href="#path9460" style="stroke-width:1;stroke-miterlimit:4;stroke-dasharray:none"/><path style="opacity:1;fill:#f2f2f2;fill-opacity:1;fill-rule:nonzero;stroke:#000;stroke-width:1;stroke-linecap:round;stroke-linejoin:round;stroke-miterlimit:4;stroke-dasharray:none;stroke-opacity:1" id="path10067" d="M 266.2513,905.61165 C 266.09459,909.68018 268.8683,918.79264 268.8683,918.79264 L 333.69516,918.79264 L 333.69516,884.55499 L 272.36311,884.55499 C 272.36311,884.55499 266.50515,899.02151 266.2513,905.61165 z"/><path style="opacity:1;fill:#f2f2f2;fill-opacity:1;fill-rule:nonzero;stroke:#000;stroke-width:1;stroke-linecap:round;stroke-linejoin:round;stroke-miterlimit:4;stroke-dasharray:none;stroke-opacity:1" id="path10065" d="M 253.00723,884.55499 L 180.51866,884.55499 L 180.51866,918.79264 L 256.50204,918.79264 C 256.50204,918.79264 259.22863,910.02416 259.22876,905.61165 C 259.22897,898.70421 253.00723,884.55499 253.00723,884.55499 z"/><path style="fill:#0ff;fill-opacity:.17898834999999999;fill-rule:nonzero;stroke:#000;stroke-width:1;stroke-linecap:round;stroke-linejoin:round;stroke-miterlimit:4;stroke-dasharray:none;stroke-opacity:1" id="path9528" d="M 321.17027,831.81619 C 321.11303,834.56513 295.03088,844.54076 262.82343,844.54076 C 230.61597,844.54076 204.51313,834.45243 204.47659,831.81619 C 204.44166,829.29588 230.61597,819.09161 262.82343,819.09161 C 295.03088,819.09161 321.22513,829.18131 321.17027,831.81619 z"/><path style="fill:#fff;fill-rule:evenodd;stroke:#000;stroke-width:1;stroke-linecap:butt;stroke-linejoin:miter;stroke-opacity:1;stroke-miterlimit:4;stroke-dasharray:none" id="path10227" d="M 218.04737,846.82455 L 206.52312,858.54056 L 200.15162,858.77121 L 200.12248,857.07241 L 205.05023,856.90945 L 211.145,850.60958 L 196.097,834.29902 L 196.17459,793.09932 L 206.49391,793.02174 L 206.64908,829.95405 L 204.4766,831.50582 L 206.33873,834.29902 L 218.04737,846.82455 z M 200.21067,862.74393 L 210.33523,862.44956 L 221.9624,851.01272 L 246.3746,877.12808 L 237.06393,877.12808 L 218.17496,858.58753 L 212.52484,864.38127 L 200.26111,864.65189 L 200.21067,862.74393 z"/><path style="fill:#fff;fill-rule:evenodd;stroke:#000;stroke-width:1;stroke-linecap:butt;stroke-linejoin:miter;stroke-opacity:1;stroke-miterlimit:4;stroke-dasharray:none" id="path10229" d="M 319.90796,792.91095 L 319.75279,829.84325 L 321.92527,831.39503 L 320.06314,834.18823 L 280.02728,877.01729 L 289.33794,877.01729 L 330.30487,834.18823 L 330.22728,792.98853 L 319.90796,792.91095 z"/></g></svg>