<svg xmlns="http://www.w3.org/2000/svg" xmlns:svg="http://www.w3.org/2000/svg" id="svg2" width="744.094" height="1052.362"><metadata id="metadata7"/><g id="layer1"><path style="fill:#fff;stroke:#000;stroke-width:.8518309;stroke-miterlimit:4;stroke-dasharray:none;stroke-opacity:1" id="rect2385" d="M 214.09375,453.27793 L 214.09375,515.03125 L 315.15625,515.03125 L 315.15625,652.34375 L 337.40625,674.5625 L 314.15625,696.78125 L 336.625,716.71875 L 315.15625,737.1875 L 336.375,755.375 L 316.1875,775.34375 L 331.34375,789.21875 L 328.86161,798.49107 L 437.40625,799.8125 L 456.59375,782.65625 L 440.6875,770.78125 L 457.34375,750.84375 L 439.65625,737.6875 L 456.59375,714.96875 L 439.65625,699.8125 L 457.59375,677.40625 L 446.28125,661.875 L 456.59375,652.34375 L 456.59375,515.03125 L 553.625,515.03125 L 553.625,453.27793 C 510.14845,385.97667 255.55,386.42684 214.09375,453.27793 z"/><path style="fill:none;fill-rule:evenodd;stroke:#000;stroke-width:1px;stroke-linecap:butt;stroke-linejoin:miter;stroke-opacity:1" id="path3170" d="M 456.33641,782.39891 L 329.33294,798.24754"/><path style="fill:none;fill-rule:evenodd;stroke:#000;stroke-width:1px;stroke-linecap:butt;stroke-linejoin:miter;stroke-opacity:1" id="path3172" d="M 457.09402,751.08419 L 316.93536,775.32785"/><path style="fill:none;fill-rule:evenodd;stroke:#000;stroke-width:1px;stroke-linecap:butt;stroke-linejoin:miter;stroke-opacity:1" id="path3174" d="M 456.08387,714.97123 L 315.42013,737.44713 L 314.66252,737.19459"/><path style="fill:none;fill-rule:evenodd;stroke:#000;stroke-width:1px;stroke-linecap:butt;stroke-linejoin:miter;stroke-opacity:1" id="path3176" d="M 456.27514,677.88402 L 314.40998,697.04102"/><path style="fill:none;fill-rule:evenodd;stroke:#000;stroke-width:1px;stroke-linecap:butt;stroke-linejoin:miter;stroke-opacity:1" id="path3180" d="M 337.64349,674.06005 L 446.23489,661.18061"/><path style="fill:none;fill-rule:evenodd;stroke:#000;stroke-width:1px;stroke-linecap:butt;stroke-linejoin:miter;stroke-opacity:1" id="path3182" d="M 336.12826,716.48646 L 440.17397,699.81894"/><path style="fill:none;fill-rule:evenodd;stroke:#000;stroke-width:1px;stroke-linecap:butt;stroke-linejoin:miter;stroke-opacity:1" id="path3184" d="M 336.12826,754.87226 L 439.6689,738.70982"/><path style="fill:none;fill-rule:evenodd;stroke:#000;stroke-width:1px;stroke-linecap:butt;stroke-linejoin:miter;stroke-opacity:1" id="path3186" d="M 331.0775,788.71237 L 440.93159,771.28724"/><path style="fill:none;fill-rule:evenodd;stroke:#000;stroke-width:1px;stroke-linecap:butt;stroke-linejoin:miter;stroke-opacity:1" id="path3189" d="M 302.54068,409.90516 L 362.13968,495.76814 L 410.62701,495.76814 L 469.72093,411.16786"/><path style="fill:none;fill-rule:evenodd;stroke:#000;stroke-width:1px;stroke-linecap:butt;stroke-linejoin:miter;stroke-opacity:1" id="path3191" d="M 354.81608,402.58156 L 376.02928,495.76814 L 400.52548,495.76814 L 413.15239,402.8341"/><path style="fill:none;fill-rule:evenodd;stroke:#00f;stroke-width:1px;stroke-linecap:butt;stroke-linejoin:miter;stroke-opacity:1" id="path2390" d="M 299.28571,388.79075 L 367.14286,490.93361 L 404.82668,490.93361 L 473.48477,389.41838"/><path style="fill:none;fill-rule:evenodd;stroke:red;stroke-width:1px;stroke-linecap:butt;stroke-linejoin:miter;stroke-opacity:1" id="path3162" d="M 205.71429,521.6479 L 307.85715,521.6479"/><path style="fill:none;fill-rule:evenodd;stroke:red;stroke-width:1px;stroke-linecap:butt;stroke-linejoin:miter;stroke-opacity:1" id="path3164" d="M 462.85714,521.6479 L 562.85715,521.6479"/><path style="fill:green;fill-rule:evenodd;stroke:red;stroke-width:.87307959999999984px;stroke-linecap:butt;stroke-linejoin:miter;stroke-opacity:1" id="path3166" d="M 332.20632,672.29872 L 309.22226,694.21135"/><path style="fill:none;fill-rule:evenodd;stroke:red;stroke-width:.76605457px;stroke-linecap:butt;stroke-linejoin:miter;stroke-opacity:1" id="path3171" d="M 332.25983,714.74522 L 312.02589,733.90774"/><path style="fill:red;fill-rule:evenodd;stroke:green;stroke-width:.68977672000000001px;stroke-linecap:butt;stroke-linejoin:miter;stroke-opacity:1" id="path3181" d="M 461.70624,752.37295 L 445.07949,771.27997"/><path style="fill:red;fill-rule:evenodd;stroke:green;stroke-width:.73657823px;stroke-linecap:butt;stroke-linejoin:miter;stroke-opacity:1" id="path3183" d="M 461.68283,784.18207 L 441.53146,801.97087"/><text style="font-size:12px;font-style:normal;font-weight:400;fill:maroon;fill-opacity:1;stroke:none;stroke-width:1px;stroke-linecap:butt;stroke-linejoin:miter;stroke-opacity:1;font-family:Bitstream Vera Sans" id="text3189" x="250" y="695.219" xml:space="preserve"><tspan id="tspan3191" x="250" y="695.219">Tapered</tspan><tspan id="tspan3193" x="250" y="710.219">Bearing</tspan><tspan id="tspan3195" x="250" y="725.219">(tighten)</tspan></text><text style="font-size:12px;font-style:normal;font-weight:400;fill:green;fill-opacity:1;stroke:none;stroke-width:1px;stroke-linecap:butt;stroke-linejoin:miter;stroke-opacity:1;font-family:Bitstream Vera Sans" id="text3197" x="472.5" y="759.862" xml:space="preserve"><tspan id="tspan3199" x="472.5" y="759.862">Tapered</tspan><tspan id="tspan3201" x="472.5" y="774.862">Bearing</tspan><tspan id="tspan3203" x="472.5" y="789.862">(loosen)</tspan></text><path style="fill:none;fill-rule:evenodd;stroke:red;stroke-width:.58522695px;stroke-linecap:butt;stroke-linejoin:miter;stroke-opacity:1" id="path3177" d="M 444.37483,697.20844 L 459.49486,712.01193"/><path style="fill:none;fill-rule:evenodd;stroke:red;stroke-width:.51018518px;stroke-linecap:butt;stroke-linejoin:miter;stroke-opacity:1" id="path3208" d="M 450.25961,659.20863 L 461.16897,674.80145"/><path style="fill:red;fill-rule:evenodd;stroke:green;stroke-width:.74550176000000001px;stroke-linecap:butt;stroke-linejoin:miter;stroke-opacity:1" id="path3210" d="M 311.80584,740.57628 L 331.94416,758.61235"/><path style="fill:red;fill-rule:evenodd;stroke:green;stroke-width:.67181373px;stroke-linecap:butt;stroke-linejoin:miter;stroke-opacity:1" id="path3212" d="M 311.59043,778.75374 L 329.65958,795.07777"/><text style="font-size:12px;font-style:normal;font-weight:400;fill:navy;fill-opacity:1;stroke:none;stroke-width:1px;stroke-linecap:butt;stroke-linejoin:miter;stroke-opacity:1;font-family:Bitstream Vera Sans" id="text3214" x="461.135" y="453.342" xml:space="preserve"><tspan id="tspan3216" x="461.135" y="453.342">Torque</tspan><tspan id="tspan3218" x="461.135" y="468.342">Bearing</tspan><tspan id="tspan3220" x="461.135" y="483.342">(spline)</tspan></text><path style="fill:none;fill-rule:evenodd;stroke:#000;stroke-width:1px;stroke-linecap:butt;stroke-linejoin:miter;stroke-opacity:1" id="path3222" d="M 387.3935,512.94073 L 387.3935,540.21484 C 387.3935,540.21484 313.81224,550.71418 364.66507,558.90267 C 415.1727,567.03557 415.1727,564.45851 412.64732,561.93313 C 410.12194,559.40775 335.40786,568.54746 351.02801,577.59049 C 368.2006,587.53228 410.62701,584.32186 410.62701,582.13617 C 403.30928,573.52285 304.38902,590.80816 371.23106,602.84431 C 415.70752,610.85312 411.98141,606.52542 412.14224,605.36968 C 403.69179,592.0904 329.1645,615.74805 355.06862,622.0372 C 380.78391,628.2805 384.86812,628.09811 384.86812,628.09811 L 384.86812,657.39254"/><text style="font-size:12px;font-style:normal;font-weight:400;fill:#000;fill-opacity:1;stroke:none;stroke-width:1px;stroke-linecap:butt;stroke-linejoin:miter;stroke-opacity:1;font-family:Bitstream Vera Sans" id="text3224" x="469.721" y="589.712" xml:space="preserve"><tspan id="tspan3226" x="469.721" y="589.712">Elastic</tspan><tspan id="tspan3228" x="469.721" y="604.712">Element</tspan><tspan id="tspan3230" x="469.721" y="619.712">(body)</tspan></text><text style="font-size:12px;font-style:normal;font-weight:400;fill:maroon;fill-opacity:1;stroke:none;stroke-width:1px;stroke-linecap:butt;stroke-linejoin:miter;stroke-opacity:1;font-family:Bitstream Vera Sans" id="text3232" x="237.386" y="539.205" xml:space="preserve"><tspan id="tspan3234" x="237.386" y="539.205">Thrust</tspan><tspan id="tspan3236" x="237.386" y="554.205">Bearing</tspan></text></g></svg>